<svg width="303" height="331" viewBox="0 0 303 331" fill="none" xmlns="http://www.w3.org/2000/svg">
<path d="M203.411 198.773C194.39 198.265 185.504 194.791 179.473 187.957C171.085 178.831 168.116 164.002 173.203 152.491C179.546 137.609 194.94 131.284 210.501 132.372C222.097 132.372 248.412 132.372 261.897 132.372C266.308 132.31 270.17 132.58 274.104 132.082C283.167 131.128 292.665 125.165 297.513 117.222C306.731 103.263 303.243 82.8547 289.292 73.3142C283.738 69.2698 277.063 67.4342 270.222 66.9157C266.807 66.5735 263.371 66.1898 260.132 65.2046C249.886 62.1454 241.747 54.2433 238.374 44.1635C236.526 38.9162 236.599 33.2229 235.654 27.7889C233.474 14.7017 223.353 4.66336 210.2 1.68711C207.2 0.981931 204.356 0.463421 201.574 0.44268C169.694 0.338978 113.62 0.038242 101.62 0.00713139C85.6853 -0.324715 70.467 10.9581 67.6746 26.9075C64.4254 42.3694 73.7785 58.8996 88.5505 64.095C93.772 66.0446 98.0282 66.4698 103.717 66.4076C121.136 66.5735 124.756 66.9883 134.295 67.0817C146.566 66.6876 159.905 72.6608 165.832 83.6118C178.777 107.515 160.362 132.974 133.984 132.041C101.357 132.113 82.54 131.999 43.3835 132.03C36.6463 132.082 31.4559 131.647 25.0717 133.358C6.70798 137.672 -4.45141 158.868 2.38955 176.519C6.50036 188.154 17.3899 196.554 29.6808 198.057C45.0236 199.053 78.7581 198.172 117.499 198.451C126.416 198.451 132.946 198.451 135.541 198.451C138.043 198.431 140.389 198.721 143.088 199.26C159.552 202.029 170.794 218.062 169.85 234.312C169.85 245.273 169.85 278.841 169.85 295.569C169.819 301.594 170.898 307.795 174.013 313.654C182.93 331.024 206.972 336.562 222.657 324.678C234.512 315.977 237.076 303.315 236.401 289.595C236.381 275.647 236.422 251.837 236.401 236.396C237.74 215.894 224.588 199.623 203.629 198.814L203.421 198.794L203.411 198.773Z" fill="#A9DDD3"/>
</svg>
